<?xml version="1.0" standalone="no"?>
<!DOCTYPE svg PUBLIC "-//W3C//DTD SVG 20010904//EN"
 "http://www.w3.org/TR/2001/REC-SVG-20010904/DTD/svg10.dtd">
<svg version="1.0" xmlns="http://www.w3.org/2000/svg"
 width="512.000000pt" height="512.000000pt" viewBox="0 0 512.000000 512.000000"
 preserveAspectRatio="xMidYMid meet">
<metadata>
Created by potrace 1.11, written by Peter Selinger 2001-2013
</metadata>
<g transform="translate(0.000000,512.000000) scale(0.100000,-0.100000)"
fill="#000000" stroke="none">
<path d="M366 4788 c-104 -215 -73 -505 89 -833 88 -176 117 -224 227 -374
302 -407 739 -748 1162 -906 94 -35 243 -73 313 -80 42 -4 42 -4 109 -87 32
-40 61 -75 64 -78 3 -3 59 -70 125 -150 66 -80 122 -147 125 -150 5 -5 47 -55
385 -465 81 -99 167 -202 190 -230 24 -27 80 -95 125 -150 45 -55 92 -111 104
-125 11 -14 84 -101 161 -195 77 -93 148 -179 157 -190 9 -11 118 -141 240
-290 l223 -270 70 -10 c250 -37 378 51 379 260 1 131 -10 174 -52 218 -151
156 -4153 4152 -4160 4155 -6 2 -22 -21 -36 -50z"/>
<path d="M3579 4253 c-440 -442 -571 -578 -587 -615 -38 -84 -32 -189 18 -303
l22 -50 -99 -95 c-55 -52 -147 -141 -206 -196 l-107 -101 146 -147 c80 -80
148 -146 151 -146 3 0 14 9 24 21 10 12 81 87 158 168 76 80 154 162 172 182
l34 37 75 -31 c63 -25 90 -30 165 -31 74 -1 99 3 139 22 40 18 163 135 613
585 l562 562 -67 68 c-36 37 -70 67 -74 67 -5 0 -163 -155 -353 -345 -190
-190 -348 -345 -352 -345 -4 0 -36 28 -70 62 l-63 63 352 352 353 353 -75 75
-75 75 -352 -352 -353 -353 -66 66 -65 65 352 353 352 352 -74 75 c-40 41 -76
74 -79 74 -3 0 -260 -255 -571 -567z"/>
<path d="M2035 2334 c-60 -57 -218 -208 -454 -434 -83 -80 -418 -399 -461
-440 -20 -19 -108 -103 -196 -187 -87 -83 -186 -177 -219 -208 -181 -172 -421
-402 -436 -419 -20 -21 -31 -74 -34 -166 -2 -77 17 -151 52 -196 52 -69 173
-98 310 -74 l70 11 134 141 c191 201 199 209 359 379 80 84 184 194 231 244
48 49 102 106 120 126 19 20 93 99 166 175 72 77 150 159 174 184 23 25 108
114 188 199 80 85 162 171 181 191 19 20 68 72 108 114 79 83 77 74 30 131 -9
11 -67 81 -129 155 -62 74 -115 136 -118 137 -3 2 -37 -27 -76 -63z"/>
</g>
</svg>
